<svg width="25" height="25" viewBox="0 0 25 25" fill="none" xmlns="http://www.w3.org/2000/svg">
<path d="M12.9288 0.880493C6.3121 0.880493 0.928833 6.26376 0.928833 12.8805C0.928833 19.4972 6.3121 24.8805 12.9288 24.8805C19.5456 24.8805 24.9288 19.4972 24.9288 12.8805C24.9288 6.26376 19.5456 0.880493 12.9288 0.880493ZM10.0315 7.62011C10.7625 6.8453 11.7911 6.41895 12.9288 6.41895C14.0665 6.41895 15.0859 6.84819 15.8198 7.62703C16.5634 8.41626 16.9252 9.47665 16.8398 10.6166C16.669 12.8805 14.9152 14.7266 12.9288 14.7266C10.9425 14.7266 9.18518 12.8805 9.01787 10.6161C8.93306 9.46684 9.29422 8.40299 10.0315 7.62011V7.62011ZM12.9288 23.0343C11.5733 23.0352 10.2315 22.7639 8.98277 22.2365C7.73409 21.7091 6.60403 20.9363 5.6596 19.964C6.2005 19.1926 6.88969 18.5367 7.68691 18.0347C9.15749 17.092 11.0186 16.5728 12.9288 16.5728C14.839 16.5728 16.7002 17.092 18.169 18.0347C18.9669 18.5365 19.6567 19.1924 20.1981 19.964C19.2537 20.9364 18.1237 21.7093 16.875 22.2367C15.6263 22.7641 14.2844 23.0354 12.9288 23.0343V23.0343Z" fill="white"/>
</svg>
