<svg width="25" height="25" viewBox="0 0 25 25" fill="none" xmlns="http://www.w3.org/2000/svg">
<path d="M12.3579 0.540619C5.74118 0.540619 0.35791 5.92389 0.35791 12.5406C0.35791 19.1573 5.74118 24.5406 12.3579 24.5406C18.9746 24.5406 24.3579 19.1573 24.3579 12.5406C24.3579 5.92389 18.9746 0.540619 12.3579 0.540619ZM9.4606 7.28023C10.1916 6.50543 11.2202 6.07908 12.3579 6.07908C13.4956 6.07908 14.515 6.50831 15.2489 7.28716C15.9925 8.07639 16.3543 9.13677 16.2689 10.2768C16.0981 12.5406 14.3443 14.3868 12.3579 14.3868C10.3716 14.3868 8.61426 12.5406 8.44695 10.2762C8.36214 9.12697 8.72329 8.06312 9.4606 7.28023V7.28023ZM12.3579 22.6945C11.0024 22.6954 9.66053 22.4241 8.41185 21.8966C7.16316 21.3692 6.0331 20.5964 5.08868 19.6241C5.62958 18.8527 6.31877 18.1969 7.11599 17.6948C8.58656 16.7522 10.4477 16.2329 12.3579 16.2329C14.2681 16.2329 16.1293 16.7522 17.5981 17.6948C18.396 18.1966 19.0858 18.8525 19.6271 19.6241C18.6828 20.5965 17.5528 21.3694 16.304 21.8968C15.0553 22.4242 13.7134 22.6955 12.3579 22.6945V22.6945Z" fill="black"/>
</svg>
