<svg width="25" height="25" viewBox="0 0 25 25" fill="none" xmlns="http://www.w3.org/2000/svg">
<path d="M14.7529 2.3335H6.75287C6.22244 2.3335 5.71373 2.54421 5.33865 2.91928C4.96358 3.29436 4.75287 3.80306 4.75287 4.3335V20.3335C4.75287 20.8639 4.96358 21.3726 5.33865 21.7477C5.71373 22.1228 6.22244 22.3335 6.75287 22.3335H18.7529C19.2833 22.3335 19.792 22.1228 20.1671 21.7477C20.5422 21.3726 20.7529 20.8639 20.7529 20.3335V8.3335L14.7529 2.3335Z" stroke="black" stroke-width="2" stroke-linecap="round" stroke-linejoin="round"/>
<path d="M14.7529 2.3335V8.3335H20.7529" stroke="black" stroke-width="2" stroke-linecap="round" stroke-linejoin="round"/>
<path d="M16.7529 13.3335H8.75287" stroke="black" stroke-width="2" stroke-linecap="round" stroke-linejoin="round"/>
<path d="M16.7529 17.3335H8.75287" stroke="black" stroke-width="2" stroke-linecap="round" stroke-linejoin="round"/>
<path d="M10.7529 9.3335H9.75287H8.75287" stroke="black" stroke-width="2" stroke-linecap="round" stroke-linejoin="round"/>
</svg>
