<svg width="17" height="17" viewBox="0 0 17 17" fill="none" xmlns="http://www.w3.org/2000/svg">
<path d="M13.834 7.68738V14.8749C13.834 15.0801 13.7936 15.2832 13.715 15.4728C13.6365 15.6624 13.5214 15.8346 13.3763 15.9797C13.2312 16.1248 13.059 16.2399 12.8694 16.3184C12.6799 16.397 12.4767 16.4374 12.2715 16.4374H2.89648C2.48208 16.4374 2.08466 16.2728 1.79163 15.9797C1.4986 15.6867 1.33398 15.2893 1.33398 14.8749V5.49988C1.33398 5.08548 1.4986 4.68805 1.79163 4.39502C2.08466 4.102 2.48208 3.93738 2.89648 3.93738H9.43867" stroke="black" stroke-linecap="round" stroke-linejoin="round"/>
<path d="M16.8004 1.01747C16.7434 0.954749 16.6742 0.904255 16.597 0.869036C16.5199 0.833817 16.4364 0.814605 16.3516 0.81256C16.2668 0.810516 16.1825 0.825681 16.1038 0.85714C16.025 0.888599 15.9534 0.935699 15.8934 0.995592L15.4102 1.47645C15.3516 1.53505 15.3187 1.61451 15.3187 1.69735C15.3187 1.7802 15.3516 1.85965 15.4102 1.91825L15.8532 2.36044C15.8822 2.38961 15.9167 2.41276 15.9547 2.42855C15.9927 2.44435 16.0335 2.45248 16.0747 2.45248C16.1158 2.45248 16.1566 2.44435 16.1946 2.42855C16.2326 2.41276 16.2671 2.38961 16.2961 2.36044L16.7672 1.89169C17.0055 1.6538 17.0278 1.2663 16.8004 1.01747ZM14.4333 2.45301L7.38169 9.49208C7.33893 9.53466 7.30786 9.58753 7.29145 9.64559L6.96528 10.6171C6.95747 10.6434 6.95692 10.6714 6.96368 10.6981C6.97045 10.7247 6.98428 10.749 7.00372 10.7685C7.02316 10.7879 7.04749 10.8018 7.07414 10.8085C7.10079 10.8153 7.12877 10.8147 7.15513 10.8069L8.12583 10.4807C8.1839 10.4643 8.23676 10.4333 8.27934 10.3905L15.3184 3.33817C15.3835 3.27235 15.4201 3.1835 15.4201 3.09091C15.4201 2.99831 15.3835 2.90946 15.3184 2.84364L14.9297 2.45301C14.8638 2.3873 14.7746 2.35039 14.6815 2.35039C14.5884 2.35039 14.4992 2.3873 14.4333 2.45301V2.45301Z" fill="black"/>
</svg>
