<svg width="25" height="25" viewBox="0 0 25 25" fill="none" xmlns="http://www.w3.org/2000/svg">
<g clip-path="url(#clip0_6_1159)">
<path d="M11.9033 4.3335H4.90326C4.37283 4.3335 3.86412 4.54421 3.48905 4.91928C3.11397 5.29436 2.90326 5.80306 2.90326 6.3335V20.3335C2.90326 20.8639 3.11397 21.3726 3.48905 21.7477C3.86412 22.1228 4.37283 22.3335 4.90326 22.3335H18.9033C19.4337 22.3335 19.9424 22.1228 20.3175 21.7477C20.6925 21.3726 20.9033 20.8639 20.9033 20.3335V13.3335" stroke="black" stroke-width="2" stroke-linecap="round" stroke-linejoin="round"/>
<path d="M19.4033 2.83348C19.8011 2.43565 20.3407 2.21216 20.9033 2.21216C21.4659 2.21216 22.0054 2.43565 22.4033 2.83348C22.8011 3.2313 23.0246 3.77087 23.0246 4.33348C23.0246 4.89609 22.8011 5.43565 22.4033 5.83348L12.9033 15.3335L8.90326 16.3335L9.90326 12.3335L19.4033 2.83348Z" stroke="black" stroke-width="2" stroke-linecap="round" stroke-linejoin="round"/>
</g>
<defs>
<clipPath id="clip0_6_1159">
<rect width="24" height="24" fill="white" transform="translate(0.903259 0.333496)"/>
</clipPath>
</defs>
</svg>
