<svg width="25" height="25" viewBox="0 0 25 25" fill="none" xmlns="http://www.w3.org/2000/svg">
<path d="M12.0284 0.540619C5.40166 0.540619 0.0284424 6.05312 0.0284424 12.846C0.0284424 18.2835 3.46773 22.8906 8.23559 24.5192C8.30246 24.5337 8.37072 24.5409 8.43916 24.5406C8.8838 24.5406 9.05523 24.2138 9.05523 23.9299C9.05523 23.6353 9.04451 22.8638 9.03916 21.8353C8.64221 21.9283 8.23614 21.9768 7.82844 21.9799C5.51951 21.9799 4.99451 20.1853 4.99451 20.1853C4.44809 18.7656 3.66059 18.3853 3.66059 18.3853C2.61594 17.6513 3.65523 17.6299 3.73559 17.6299H3.74094C4.9463 17.737 5.57844 18.9049 5.57844 18.9049C6.17844 19.9549 6.98201 20.2495 7.69987 20.2495C8.17453 20.24 8.64185 20.1305 9.0713 19.9281C9.17844 19.1353 9.48916 18.5942 9.83201 18.2835C7.16951 17.9728 4.36773 16.9174 4.36773 12.2031C4.36773 10.8585 4.8338 9.76026 5.59987 8.90312C5.47666 8.5924 5.06416 7.33883 5.71773 5.64597C5.8054 5.625 5.8955 5.61599 5.98559 5.61919C6.41951 5.61919 7.39987 5.78526 9.01773 6.91026C10.9836 6.36025 13.0626 6.36025 15.0284 6.91026C16.6463 5.78526 17.6267 5.61919 18.0606 5.61919C18.1507 5.61599 18.2408 5.625 18.3284 5.64597C18.982 7.33883 18.5695 8.5924 18.4463 8.90312C19.2124 9.76562 19.6784 10.8638 19.6784 12.2031C19.6784 16.9281 16.8713 17.9674 14.1981 18.2728C14.6267 18.6531 15.0124 19.4031 15.0124 20.5495C15.0124 22.1942 14.9963 23.5228 14.9963 23.9245C14.9963 24.2138 15.1624 24.5406 15.607 24.5406C15.679 24.5409 15.7508 24.5337 15.8213 24.5192C20.5945 22.8906 24.0284 18.2781 24.0284 12.846C24.0284 6.05312 18.6552 0.540619 12.0284 0.540619Z" fill="white"/>
</svg>
