<svg width="25" height="25" viewBox="0 0 25 25" fill="none" xmlns="http://www.w3.org/2000/svg">
<path d="M12.0283 0.540619C5.40154 0.540619 0.0283203 6.05312 0.0283203 12.846C0.0283203 18.2835 3.46761 22.8906 8.23546 24.5192C8.30234 24.5337 8.3706 24.5409 8.43903 24.5406C8.88368 24.5406 9.05511 24.2138 9.05511 23.9299C9.05511 23.6353 9.04439 22.8638 9.03903 21.8353C8.64209 21.9283 8.23601 21.9768 7.82832 21.9799C5.51939 21.9799 4.99439 20.1853 4.99439 20.1853C4.44796 18.7656 3.66046 18.3853 3.66046 18.3853C2.61582 17.6513 3.65511 17.6299 3.73546 17.6299H3.74082C4.94618 17.737 5.57832 18.9049 5.57832 18.9049C6.17832 19.9549 6.98189 20.2495 7.69975 20.2495C8.17441 20.24 8.64173 20.1305 9.07118 19.9281C9.17832 19.1353 9.48903 18.5942 9.83189 18.2835C7.16939 17.9728 4.36761 16.9174 4.36761 12.2031C4.36761 10.8585 4.83368 9.76026 5.59975 8.90312C5.47653 8.5924 5.06403 7.33883 5.71761 5.64597C5.80527 5.625 5.89538 5.61599 5.98546 5.61919C6.41939 5.61919 7.39975 5.78526 9.01761 6.91026C10.9834 6.36025 13.0625 6.36025 15.0283 6.91026C16.6462 5.78526 17.6265 5.61919 18.0605 5.61919C18.1505 5.61599 18.2407 5.625 18.3283 5.64597C18.9819 7.33883 18.5694 8.5924 18.4462 8.90312C19.2122 9.76562 19.6783 10.8638 19.6783 12.2031C19.6783 16.9281 16.8712 17.9674 14.198 18.2728C14.6265 18.6531 15.0122 19.4031 15.0122 20.5495C15.0122 22.1942 14.9962 23.5228 14.9962 23.9245C14.9962 24.2138 15.1622 24.5406 15.6069 24.5406C15.6789 24.5409 15.7507 24.5337 15.8212 24.5192C20.5944 22.8906 24.0283 18.2781 24.0283 12.846C24.0283 6.05312 18.6551 0.540619 12.0283 0.540619Z" fill="black"/>
</svg>
