<svg width="25" height="24" viewBox="0 0 25 24" fill="none" xmlns="http://www.w3.org/2000/svg">
<g clip-path="url(#clip0_6_1150)">
<path d="M22.5937 6.42C22.4749 5.94541 22.2329 5.51057 21.8923 5.15941C21.5517 4.80824 21.1244 4.55318 20.6537 4.42C18.9337 4 12.0536 4 12.0536 4C12.0536 4 5.17365 4 3.45365 4.46C2.9829 4.59318 2.55563 4.84824 2.215 5.19941C1.87437 5.55057 1.63244 5.98541 1.51365 6.46C1.19886 8.20556 1.04489 9.97631 1.05365 11.75C1.04243 13.537 1.19642 15.3213 1.51365 17.08C1.64461 17.5398 1.89196 17.9581 2.23179 18.2945C2.57163 18.6308 2.99247 18.8738 3.45365 19C5.17365 19.46 12.0536 19.46 12.0536 19.46C12.0536 19.46 18.9337 19.46 20.6537 19C21.1244 18.8668 21.5517 18.6118 21.8923 18.2606C22.2329 17.9094 22.4749 17.4746 22.5937 17C22.906 15.2676 23.06 13.5103 23.0536 11.75C23.0649 9.96295 22.9109 8.1787 22.5937 6.42V6.42Z" stroke="black" stroke-width="2" stroke-linecap="round" stroke-linejoin="round"/>
<path d="M9.80365 15.02L15.5536 11.75L9.80365 8.47998V15.02Z" stroke="black" stroke-width="2" stroke-linecap="round" stroke-linejoin="round"/>
</g>
<defs>
<clipPath id="clip0_6_1150">
<rect width="24" height="24" fill="white" transform="translate(0.0536499)"/>
</clipPath>
</defs>
</svg>
